<svg xmlns="http://www.w3.org/2000/svg" viewBox="0 0 25.8 25.8"><g data-name="Group 3089"><g data-name="Group 3088"><path d="M12.9 0a12.9 12.9 0 1012.9 12.9A12.91 12.91 0 0012.9 0zm0 24.5a11.6 11.6 0 1111.6-11.6 11.62 11.62 0 01-11.6 11.6z" data-name="Path 1525"/></g></g><g data-name="Group 3091"><g data-name="Group 3090"><path d="M13.81 12.84l3.79-3.78a.64.64 0 10-.91-.91l-3.79 3.78-3.78-3.78a.64.64 0 10-.91.9l3.78 3.8-3.78 3.75a.66.66 0 000 .9.66.66 0 00.9 0l3.8-3.78 3.78 3.79a.66.66 0 00.9 0 .66.66 0 000-.91z" data-name="Path 1526"/></g></g></svg>