<?xml version="1.0" standalone="no"?>
<!DOCTYPE svg PUBLIC "-//W3C//DTD SVG 20010904//EN"
 "http://www.w3.org/TR/2001/REC-SVG-20010904/DTD/svg10.dtd">
<svg version="1.0" xmlns="http://www.w3.org/2000/svg"
 width="832.000000pt" height="832.000000pt" viewBox="0 0 832.000000 832.000000"
 preserveAspectRatio="xMidYMid meet">
<metadata>
Created by potrace 1.11, written by Peter Selinger 2001-2013
</metadata>
<g transform="translate(0.000000,832.000000) scale(0.100000,-0.100000)"
fill="#000000" stroke="none">
<path d="M3958 8315 c-3 -3 -28 -6 -173 -20 -22 -2 -56 -6 -75 -10 -19 -4 -48
-8 -64 -10 -15 -3 -35 -7 -45 -9 -9 -3 -29 -8 -46 -11 -16 -3 -73 -16 -125
-30 -52 -14 -102 -27 -110 -30 -8 -2 -15 -4 -15 -5 0 -1 -8 -3 -18 -5 -10 -2
-26 -7 -35 -11 -9 -4 -22 -8 -28 -9 -7 -2 -65 -24 -130 -50 -221 -88 -420
-197 -616 -336 -124 -88 -244 -189 -333 -278 l-50 -51 -408 0 -408 0 4 -1582
c1 -871 6 -1594 9 -1608 4 -14 10 -47 13 -75 6 -50 7 -56 19 -132 13 -83 49
-232 77 -323 11 -36 22 -72 24 -80 7 -27 55 -152 70 -183 8 -17 15 -34 15 -39
0 -9 114 -240 146 -297 69 -121 207 -317 309 -439 105 -126 282 -296 410 -395
6 -4 21 -17 35 -28 14 -12 77 -55 140 -97 63 -41 127 -84 142 -94 15 -10 32
-18 37 -18 5 0 16 -6 23 -12 13 -13 106 -60 237 -120 131 -61 433 -162 506
-169 2 0 19 -5 37 -10 18 -5 60 -14 93 -19 33 -6 71 -12 85 -14 14 -2 46 -7
73 -11 34 -4 47 -11 48 -23 0 -9 1 -390 2 -847 l2 -830 325 0 325 0 2 844 c1
464 4 845 5 846 2 2 21 6 43 9 22 4 54 9 70 11 17 3 42 7 58 9 15 3 35 7 45
10 9 3 34 7 56 11 21 3 41 7 45 10 4 2 18 6 32 8 42 8 111 28 209 60 52 17
100 32 105 33 30 6 225 94 325 145 157 81 274 154 405 251 174 130 423 371
538 523 4 5 19 24 32 40 14 17 25 33 25 37 0 4 6 13 14 20 23 24 156 232 156
245 0 7 3 13 8 13 4 0 17 19 29 43 38 74 119 242 120 247 0 3 7 21 15 40 55
123 139 401 163 535 2 17 7 41 10 55 12 63 15 78 20 128 4 30 9 75 13 100 3
26 7 750 9 1610 l4 1562 -406 0 -405 0 -77 73 c-42 39 -83 79 -92 87 -65 60
-279 217 -386 282 -124 76 -290 160 -444 223 -131 54 -417 138 -516 151 -22 3
-56 9 -75 14 -19 5 -64 12 -100 16 -36 3 -78 8 -95 11 -39 5 -482 13 -487 8z"/>
</g>
</svg>
