<svg xmlns="http://www.w3.org/2000/svg" viewBox="0 0 17.855 19.61"><path stroke="#000" stroke-width=".2" d="M8.877 19.51a3.3 3.3 0 01-3.291-3.291.6585.6585 0 111.317 0 1.975 1.975 0 003.95 0 .6585.6585 0 011.317 0 3.3 3.3 0 01-3.293 3.291zm0 0" data-name="Path 1514"/><path stroke="#000" stroke-width=".2" d="M16.118 16.878H1.636a1.536 1.536 0 01-1-2.7.608.608 0 01.07-.053 5.9 5.9 0 002.026-4.45V7.222a6.151 6.151 0 016.145-6.144 2.645 2.645 0 01.433.026.659.659 0 11-.216 1.3 1.382 1.382 0 00-.217-.008A4.833 4.833 0 004.05 7.222v2.449a7.219 7.219 0 01-2.55 5.507.5757.5757 0 01-.039.03.217.217 0 00-.046.136.222.222 0 00.219.219h14.484a.222.222 0 00.22-.219.21.21 0 00-.047-.136l-.038-.03a7.217 7.217 0 01-2.548-5.5v-.957a.6585.6585 0 011.317 0v.957a5.9 5.9 0 002.028 4.453.64.64 0 01.068.051 1.536 1.536 0 01-1 2.7zm0 0" data-name="Path 1515"/><path fill="#dc5996" d="M14.698 6.315a3.157 3.157 0 113.157-3.157 3.161 3.161 0 01-3.157 3.157zm0-5.368" data-name="Path 1516"/></svg>