<svg xmlns="http://www.w3.org/2000/svg" viewBox="0 0 18 26"><path fill="#dc5996" d="M4.789 2.325S7.871-.039 10.01.566s4.717 2.669 5.156 2.789 1.887.547 1.887.547.251 11.156-.692 11.642-5.47 4.486-7.608 4-8.113-3.7-7.547-10 0-5.639 0-5.639z"/><path d="M10.027 25.989v-5.3A8.978 8.978 0 0018 11.802V2.723h-2.531a9.038 9.038 0 00-12.931 0H0v9.083a8.978 8.978 0 007.977 8.887v5.3c1.669.021.566-.02 2.05-.004zm5.921-14.183a6.883 6.883 0 01-2.731 5.483v-4.656a9.856 9.856 0 00-2.619-6.7 7.963 7.963 0 014.159-1.174h1.192zm-3.449-8.829a10.012 10.012 0 00-3.5 1.559 10.012 10.012 0 00-3.5-1.559 6.98 6.98 0 017 0zM2.053 11.806V4.763h1.192a7.952 7.952 0 015.094 1.848l.035.03a7.838 7.838 0 012.789 6v5.729a6.982 6.982 0 01-6.238-.971 6.893 6.893 0 01-2.872-5.589z"/></svg>